<svg width="425" height="144" viewBox="0 0 425 144" fill="none" xmlns="http://www.w3.org/2000/svg">
<path d="M425 44L346.5 0H66L0 44V144H425V44Z" fill="black" fill-opacity="0.25"/>
<path d="M2.5 144V45.5L67 2.5H196" stroke="white" stroke-width="5"/>
<path d="M0 143.5H192" stroke="white"/>
<path d="M424.5 144V44.2942L346.5 0.5H195.5" stroke="white"/>
<path d="M189.387 112.95C195.815 108.33 200.617 101.793 203.103 94.2765C205.589 86.7601 205.633 78.6497 203.227 71.107C200.822 63.5643 196.091 56.9764 189.713 52.2868C183.334 47.5973 175.635 45.0468 167.719 45.0006C159.802 44.9545 152.074 47.4151 145.641 52.03C139.208 56.6448 134.401 63.1772 131.908 70.6913C129.415 78.2054 129.364 86.3158 131.762 93.8607C134.161 101.406 138.885 107.998 145.26 112.693L150.213 105.969C145.258 102.319 141.586 97.195 139.722 91.3305C137.857 85.466 137.897 79.1619 139.835 73.3213C141.773 67.4807 145.509 62.4032 150.509 58.8161C155.509 55.2291 161.516 53.3165 167.67 53.3524C173.823 53.3882 179.808 55.3707 184.766 59.0158C189.724 62.6609 193.401 67.7816 195.27 73.6444C197.14 79.5072 197.106 85.8113 195.174 91.6537C193.241 97.496 189.509 102.577 184.512 106.168L189.387 112.95Z" fill="#3F3F3F"/>
<path d="M168.901 79.6185L170.631 62.1428L156.785 85.4438L167.17 87.1081L165.006 105L179.285 80.4507L168.901 79.6185Z" fill="#9CFF8A"/>
<path d="M371.387 112.95C377.815 108.33 382.617 101.793 385.103 94.2765C387.589 86.7601 387.633 78.6497 385.227 71.107C382.822 63.5643 378.091 56.9764 371.713 52.2868C365.334 47.5973 357.635 45.0468 349.719 45.0006C341.802 44.9545 334.074 47.4151 327.641 52.03C321.208 56.6448 316.401 63.1772 313.908 70.6913C311.415 78.2054 311.364 86.3158 313.762 93.8607C316.161 101.406 320.885 107.998 327.26 112.693L332.213 105.969C327.258 102.319 323.586 97.195 321.722 91.3305C319.857 85.466 319.897 79.1619 321.835 73.3213C323.773 67.4807 327.509 62.4032 332.509 58.8161C337.509 55.2291 343.516 53.3165 349.67 53.3524C355.823 53.3882 361.808 55.3707 366.766 59.0158C371.724 62.6609 375.401 67.7816 377.27 73.6444C379.14 79.5072 379.106 85.8113 377.174 91.6537C375.241 97.496 371.509 102.577 366.512 106.168L371.387 112.95Z" fill="#3F3F3F"/>
<path d="M349.729 97.5C368.387 91.5205 370.43 58.1252 349.729 73.779C331.624 58.6472 330.092 90.9987 349.729 97.5Z" fill="#DF0000"/>
<path d="M280.387 112.95C286.815 108.33 291.617 101.793 294.103 94.2765C296.589 86.7601 296.633 78.6497 294.227 71.107C291.822 63.5643 287.091 56.9764 280.713 52.2868C274.334 47.5973 266.635 45.0468 258.719 45.0006C250.802 44.9545 243.074 47.4151 236.641 52.03C230.208 56.6448 225.401 63.1772 222.908 70.6913C220.415 78.2054 220.364 86.3158 222.762 93.8607C225.161 101.406 229.885 107.998 236.26 112.693L241.213 105.969C236.258 102.319 232.586 97.195 230.722 91.3305C228.857 85.466 228.897 79.1619 230.835 73.3213C232.773 67.4807 236.509 62.4032 241.509 58.8161C246.509 55.2291 252.516 53.3165 258.67 53.3524C264.823 53.3882 270.808 55.3707 275.766 59.0158C280.724 62.6609 284.401 67.7816 286.27 73.6444C288.14 79.5072 288.106 85.8113 286.174 91.6537C284.241 97.496 280.509 102.577 275.512 106.168L280.387 112.95Z" fill="#3F3F3F"/>
<path fill-rule="evenodd" clip-rule="evenodd" d="M269.256 66.54C268.865 66.1494 268.232 66.1494 267.842 66.54L264.992 69.3901C264.577 69.245 264.132 69.1662 263.669 69.1662H262.502C260.293 69.1662 258.502 70.957 258.502 73.1662V74.1662H251.834C249.073 74.1662 246.834 76.4048 246.834 79.1662V93.3329C246.834 96.0943 249.073 98.3329 251.834 98.3329H262.667C265.429 98.3329 267.667 96.0943 267.667 93.3329V86.1027C267.668 86.0684 267.669 86.034 267.669 85.9995V73.1662C267.669 72.7401 267.602 72.3296 267.479 71.9445L270.362 69.0607C270.753 68.6702 270.753 68.037 270.362 67.6465L269.256 66.54ZM249.334 79.1597C249.334 77.5029 250.677 76.1597 252.334 76.1597H253.001C254.658 76.1597 256.001 77.5029 256.001 79.1597V82.3264C256.001 83.9833 254.658 85.3264 253.001 85.3264H252.334C250.677 85.3264 249.334 83.9833 249.334 82.3264V79.1597Z" fill="#FFE100"/>
<path d="M98.3868 113.95C104.815 109.33 109.617 102.793 112.103 95.2765C114.589 87.7601 114.633 79.6497 112.227 72.107C109.822 64.5643 105.091 57.9764 98.7129 53.2868C92.3344 48.5973 84.6353 46.0468 76.7186 46.0006C68.8018 45.9545 61.0735 48.4151 54.6408 53.03C48.208 57.6448 43.4008 64.1772 40.9078 71.6913C38.4148 79.2054 38.3638 87.3158 40.7623 94.8607C43.1607 102.406 47.8855 108.998 54.2597 113.693L59.213 106.969C54.2584 103.319 50.5859 98.195 48.7217 92.3305C46.8574 86.466 46.897 80.1619 48.8348 74.3213C50.7726 68.4807 54.5091 63.4032 59.5092 59.8161C64.5093 56.2291 70.5163 54.3165 76.6699 54.3524C82.8235 54.3882 88.8078 56.3707 93.7657 60.0158C98.7237 63.6609 102.401 68.7816 104.27 74.6444C106.14 80.5072 106.106 86.8113 104.174 92.6537C102.241 98.496 98.5091 103.577 93.5122 107.168L98.3868 113.95Z" fill="#3F3F3F"/>
<circle cx="74" cy="85" r="10" fill="#8AFFF9"/>
<circle cx="77.5" cy="82.5" r="2.5" fill="white"/>
<circle cx="86" cy="75" r="3" fill="#8AFFF9"/>
</svg>
