<svg width="200" height="200" viewBox="0 0 200 200" fill="none" xmlns="http://www.w3.org/2000/svg">
<path d="M158.365 181.201C175.508 168.879 188.311 151.448 194.941 131.404C201.571 111.36 201.687 89.7325 195.273 69.6187C188.859 49.5048 176.244 31.937 159.234 19.4315C142.225 6.92611 121.694 0.124747 100.583 0.00169854C79.4715 -0.12135 58.8627 6.44023 41.7087 18.7465C24.5547 31.0528 11.7355 48.4725 5.08747 68.5101C-1.56059 88.5478 -1.69643 110.175 4.69939 130.295C11.0952 150.415 23.6946 167.994 40.6926 180.515L53.9014 162.583C40.689 152.851 30.8958 139.187 25.9244 123.548C20.953 107.909 21.0586 91.0984 26.2261 75.5235C31.3935 59.9485 41.3576 46.4085 54.6911 36.843C68.0247 27.2775 84.0435 22.1773 100.453 22.273C116.863 22.3686 132.821 27.6552 146.042 37.3755C159.263 47.0957 169.069 60.7509 174.054 76.3851C179.04 92.0192 178.949 108.83 173.796 124.41C168.643 139.989 158.691 153.538 145.366 163.116L158.365 181.201Z" fill="white"/>
</svg>
