<svg width="425" height="144" viewBox="0 0 425 144" fill="none" xmlns="http://www.w3.org/2000/svg">
<path d="M0 55.5H21.5L60.5 91L94.5 122.5V144H0V55.5Z" fill="black" fill-opacity="0.25"/>
<path d="M94.432 125V124.456C94.432 124.408 94.439 124.368 94.453 124.336C94.4677 124.304 94.4894 124.28 94.518 124.264C94.5474 124.248 94.584 124.24 94.628 124.24C94.644 124.24 94.658 124.241 94.67 124.243C94.6827 124.245 94.694 124.248 94.704 124.252V124.332H94.696C94.686 124.328 94.676 124.325 94.666 124.323C94.6567 124.321 94.644 124.32 94.628 124.32C94.5874 124.32 94.5597 124.331 94.545 124.353C94.531 124.374 94.524 124.409 94.524 124.456V125H94.432ZM94.348 124.536V124.456H94.676V124.536H94.348Z" fill="white"/>
<path d="M94.5 144V123L21.5 55.5H1" stroke="white" stroke-width="5"/>
<path d="M55.1415 87.572C55.1415 87.4813 55.1632 87.411 55.2065 87.361C55.2499 87.311 55.3102 87.286 55.3875 87.286C55.4649 87.286 55.5252 87.311 55.5685 87.361C55.6119 87.411 55.6335 87.4813 55.6335 87.572V87.728C55.6335 87.8213 55.6119 87.8923 55.5685 87.941C55.5252 87.9897 55.4649 88.014 55.3875 88.014C55.3102 88.014 55.2499 87.9897 55.2065 87.941C55.1632 87.8923 55.1415 87.8213 55.1415 87.728V87.572ZM55.3875 87.938C55.4415 87.938 55.4819 87.9193 55.5085 87.882C55.5359 87.844 55.5495 87.7907 55.5495 87.722V87.578C55.5495 87.546 55.5462 87.517 55.5395 87.491C55.5329 87.4643 55.5225 87.4417 55.5085 87.423C55.4952 87.4037 55.4782 87.3887 55.4575 87.378C55.4375 87.3673 55.4142 87.362 55.3875 87.362C55.3602 87.362 55.3365 87.3673 55.3165 87.378C55.2965 87.3887 55.2795 87.4037 55.2655 87.423C55.2522 87.4417 55.2422 87.4643 55.2355 87.491C55.2289 87.517 55.2255 87.546 55.2255 87.578V87.722C55.2255 87.7907 55.2389 87.844 55.2655 87.882C55.2929 87.9193 55.3335 87.938 55.3875 87.938ZM55.3235 87.65C55.3235 87.6327 55.3299 87.6177 55.3425 87.605C55.3552 87.5923 55.3702 87.586 55.3875 87.586C55.4049 87.586 55.4199 87.5923 55.4325 87.605C55.4452 87.6177 55.4515 87.6327 55.4515 87.65C55.4515 87.6673 55.4452 87.6823 55.4325 87.695C55.4199 87.7077 55.4049 87.714 55.3875 87.714C55.3702 87.714 55.3552 87.7077 55.3425 87.695C55.3299 87.6823 55.3235 87.6673 55.3235 87.65ZM55.9298 87.944C55.9298 87.9247 55.9365 87.9083 55.9498 87.895C55.9638 87.881 55.9805 87.874 55.9998 87.874C56.0192 87.874 56.0355 87.881 56.0488 87.895C56.0628 87.9083 56.0698 87.9247 56.0698 87.944C56.0698 87.9633 56.0628 87.98 56.0488 87.994C56.0355 88.0073 56.0192 88.014 55.9998 88.014C55.9805 88.014 55.9638 88.0073 55.9498 87.994C55.9365 87.98 55.9298 87.9633 55.9298 87.944ZM56.3662 87.572C56.3662 87.4813 56.3878 87.411 56.4312 87.361C56.4745 87.311 56.5348 87.286 56.6122 87.286C56.6895 87.286 56.7498 87.311 56.7932 87.361C56.8365 87.411 56.8582 87.4813 56.8582 87.572V87.728C56.8582 87.8213 56.8365 87.8923 56.7932 87.941C56.7498 87.9897 56.6895 88.014 56.6122 88.014C56.5348 88.014 56.4745 87.9897 56.4312 87.941C56.3878 87.8923 56.3662 87.8213 56.3662 87.728V87.572ZM56.6122 87.938C56.6662 87.938 56.7065 87.9193 56.7332 87.882C56.7605 87.844 56.7742 87.7907 56.7742 87.722V87.578C56.7742 87.546 56.7708 87.517 56.7642 87.491C56.7575 87.4643 56.7472 87.4417 56.7332 87.423C56.7198 87.4037 56.7028 87.3887 56.6822 87.378C56.6622 87.3673 56.6388 87.362 56.6122 87.362C56.5848 87.362 56.5612 87.3673 56.5412 87.378C56.5212 87.3887 56.5042 87.4037 56.4902 87.423C56.4768 87.4417 56.4668 87.4643 56.4602 87.491C56.4535 87.517 56.4502 87.546 56.4502 87.578V87.722C56.4502 87.7907 56.4635 87.844 56.4902 87.882C56.5175 87.9193 56.5582 87.938 56.6122 87.938ZM56.5482 87.65C56.5482 87.6327 56.5545 87.6177 56.5672 87.605C56.5798 87.5923 56.5948 87.586 56.6122 87.586C56.6295 87.586 56.6445 87.5923 56.6572 87.605C56.6698 87.6177 56.6762 87.6327 56.6762 87.65C56.6762 87.6673 56.6698 87.6823 56.6572 87.695C56.6445 87.7077 56.6295 87.714 56.6122 87.714C56.5948 87.714 56.5798 87.7077 56.5672 87.695C56.5545 87.6823 56.5482 87.6673 56.5482 87.65Z" fill="white"/>
<path d="M82.1415 111.572C82.1415 111.481 82.1632 111.411 82.2065 111.361C82.2499 111.311 82.3102 111.286 82.3875 111.286C82.4649 111.286 82.5252 111.311 82.5685 111.361C82.6119 111.411 82.6335 111.481 82.6335 111.572V111.728C82.6335 111.821 82.6119 111.892 82.5685 111.941C82.5252 111.99 82.4649 112.014 82.3875 112.014C82.3102 112.014 82.2499 111.99 82.2065 111.941C82.1632 111.892 82.1415 111.821 82.1415 111.728V111.572ZM82.3875 111.938C82.4415 111.938 82.4819 111.919 82.5085 111.882C82.5359 111.844 82.5495 111.791 82.5495 111.722V111.578C82.5495 111.546 82.5462 111.517 82.5395 111.491C82.5329 111.464 82.5225 111.442 82.5085 111.423C82.4952 111.404 82.4782 111.389 82.4575 111.378C82.4375 111.367 82.4142 111.362 82.3875 111.362C82.3602 111.362 82.3365 111.367 82.3165 111.378C82.2965 111.389 82.2795 111.404 82.2655 111.423C82.2522 111.442 82.2422 111.464 82.2355 111.491C82.2289 111.517 82.2255 111.546 82.2255 111.578V111.722C82.2255 111.791 82.2389 111.844 82.2655 111.882C82.2929 111.919 82.3335 111.938 82.3875 111.938ZM82.3235 111.65C82.3235 111.633 82.3299 111.618 82.3425 111.605C82.3552 111.592 82.3702 111.586 82.3875 111.586C82.4049 111.586 82.4199 111.592 82.4325 111.605C82.4452 111.618 82.4515 111.633 82.4515 111.65C82.4515 111.667 82.4452 111.682 82.4325 111.695C82.4199 111.708 82.4049 111.714 82.3875 111.714C82.3702 111.714 82.3552 111.708 82.3425 111.695C82.3299 111.682 82.3235 111.667 82.3235 111.65ZM82.9298 111.944C82.9298 111.925 82.9365 111.908 82.9498 111.895C82.9638 111.881 82.9805 111.874 82.9998 111.874C83.0192 111.874 83.0355 111.881 83.0488 111.895C83.0628 111.908 83.0698 111.925 83.0698 111.944C83.0698 111.963 83.0628 111.98 83.0488 111.994C83.0355 112.007 83.0192 112.014 82.9998 112.014C82.9805 112.014 82.9638 112.007 82.9498 111.994C82.9365 111.98 82.9298 111.963 82.9298 111.944ZM83.3662 111.572C83.3662 111.481 83.3878 111.411 83.4312 111.361C83.4745 111.311 83.5348 111.286 83.6122 111.286C83.6895 111.286 83.7498 111.311 83.7932 111.361C83.8365 111.411 83.8582 111.481 83.8582 111.572V111.728C83.8582 111.821 83.8365 111.892 83.7932 111.941C83.7498 111.99 83.6895 112.014 83.6122 112.014C83.5348 112.014 83.4745 111.99 83.4312 111.941C83.3878 111.892 83.3662 111.821 83.3662 111.728V111.572ZM83.6122 111.938C83.6662 111.938 83.7065 111.919 83.7332 111.882C83.7605 111.844 83.7742 111.791 83.7742 111.722V111.578C83.7742 111.546 83.7708 111.517 83.7642 111.491C83.7575 111.464 83.7472 111.442 83.7332 111.423C83.7198 111.404 83.7028 111.389 83.6822 111.378C83.6622 111.367 83.6388 111.362 83.6122 111.362C83.5848 111.362 83.5612 111.367 83.5412 111.378C83.5212 111.389 83.5042 111.404 83.4902 111.423C83.4768 111.442 83.4668 111.464 83.4602 111.491C83.4535 111.517 83.4502 111.546 83.4502 111.578V111.722C83.4502 111.791 83.4635 111.844 83.4902 111.882C83.5175 111.919 83.5582 111.938 83.6122 111.938ZM83.5482 111.65C83.5482 111.633 83.5545 111.618 83.5672 111.605C83.5798 111.592 83.5948 111.586 83.6122 111.586C83.6295 111.586 83.6445 111.592 83.6572 111.605C83.6698 111.618 83.6762 111.633 83.6762 111.65C83.6762 111.667 83.6698 111.682 83.6572 111.695C83.6445 111.708 83.6295 111.714 83.6122 111.714C83.5948 111.714 83.5798 111.708 83.5672 111.695C83.5545 111.682 83.5482 111.667 83.5482 111.65Z" fill="white"/>
<path d="M52.2039 87V86.656C52.2039 86.6427 52.2036 86.6253 52.2029 86.604C52.2029 86.5827 52.2022 86.5617 52.2009 86.541C52.2002 86.5203 52.1986 86.504 52.1959 86.492L52.1979 86.484C52.2152 86.4773 52.2369 86.471 52.2629 86.465C52.2889 86.459 52.3156 86.454 52.3429 86.45C52.3702 86.446 52.3946 86.444 52.4159 86.444C52.4452 86.444 52.4732 86.4477 52.4999 86.455C52.5266 86.4617 52.5502 86.474 52.5709 86.492C52.5922 86.5093 52.6089 86.5333 52.6209 86.564C52.6336 86.594 52.6399 86.6327 52.6399 86.68V87H52.5479V86.688C52.5479 86.644 52.5416 86.6103 52.5289 86.587C52.5169 86.563 52.4999 86.5467 52.4779 86.538C52.4566 86.5287 52.4319 86.524 52.4039 86.524C52.3826 86.524 52.3596 86.5263 52.3349 86.531C52.3109 86.5357 52.2899 86.5413 52.2719 86.548L52.2879 86.52C52.2906 86.53 52.2926 86.5427 52.2939 86.558C52.2952 86.5727 52.2959 86.588 52.2959 86.604V87H52.2039ZM52.8799 87V86.688C52.8799 86.644 52.8742 86.6103 52.8629 86.587C52.8516 86.563 52.8346 86.5467 52.8119 86.538C52.7892 86.5287 52.7612 86.524 52.7279 86.524C52.7086 86.524 52.6886 86.5263 52.6679 86.531C52.6479 86.5357 52.6266 86.5427 52.6039 86.552L52.5479 86.488C52.5812 86.4747 52.6142 86.464 52.6469 86.456C52.6802 86.448 52.7112 86.444 52.7399 86.444C52.7732 86.444 52.8039 86.4477 52.8319 86.455C52.8599 86.4617 52.8842 86.474 52.9049 86.492C52.9262 86.5093 52.9426 86.5333 52.9539 86.564C52.9659 86.594 52.9719 86.6327 52.9719 86.68V87H52.8799ZM53.476 86.28H53.56L53.168 87H53.084L53.476 86.28ZM53.5476 86.892H53.5556C53.5796 86.9027 53.6066 86.9113 53.6366 86.918C53.6673 86.9247 53.6976 86.928 53.7276 86.928C53.7369 86.928 53.7493 86.9277 53.7646 86.927C53.7806 86.9257 53.7966 86.9227 53.8126 86.918C53.8293 86.9133 53.8433 86.9053 53.8546 86.894C53.8659 86.882 53.8716 86.8653 53.8716 86.844C53.8716 86.82 53.8619 86.803 53.8426 86.793C53.8233 86.783 53.7966 86.7753 53.7626 86.77L53.7146 86.762C53.6579 86.7527 53.6159 86.7367 53.5886 86.714C53.5613 86.6907 53.5476 86.658 53.5476 86.616C53.5476 86.5867 53.5553 86.5593 53.5706 86.534C53.5866 86.508 53.6119 86.4873 53.6466 86.472C53.6819 86.456 53.7289 86.448 53.7876 86.448C53.8136 86.448 53.8386 86.4503 53.8626 86.455C53.8873 86.459 53.9076 86.464 53.9236 86.47V86.552H53.9156C53.8936 86.544 53.8726 86.538 53.8526 86.534C53.8326 86.53 53.8096 86.528 53.7836 86.528C53.7376 86.528 53.7013 86.5347 53.6746 86.548C53.6486 86.5607 53.6356 86.5823 53.6356 86.613C53.6356 86.6363 53.6449 86.653 53.6636 86.663C53.6829 86.673 53.7096 86.6807 53.7436 86.686L53.7916 86.694C53.8223 86.6987 53.8503 86.707 53.8756 86.719C53.9009 86.731 53.9213 86.7473 53.9366 86.768C53.9519 86.788 53.9596 86.8133 53.9596 86.844C53.9596 86.898 53.9403 86.939 53.9016 86.967C53.8629 86.9943 53.8036 87.008 53.7236 87.008C53.6896 87.008 53.6576 87.0053 53.6276 87C53.5983 86.9947 53.5716 86.988 53.5476 86.98V86.892ZM54.3475 87V86.656C54.3475 86.6427 54.3471 86.6253 54.3465 86.604C54.3465 86.5827 54.3458 86.5617 54.3445 86.541C54.3438 86.5203 54.3421 86.504 54.3395 86.492L54.3415 86.484C54.3588 86.4773 54.3801 86.4717 54.4055 86.467C54.4315 86.4623 54.4571 86.4587 54.4825 86.456C54.5085 86.4533 54.5301 86.452 54.5475 86.452C54.5635 86.452 54.5765 86.4523 54.5865 86.453C54.5965 86.4537 54.6048 86.4547 54.6115 86.456V86.536H54.6035C54.5948 86.5347 54.5845 86.5337 54.5725 86.533C54.5605 86.5323 54.5495 86.532 54.5395 86.532C54.5188 86.532 54.4971 86.5337 54.4745 86.537C54.4518 86.5403 54.4321 86.5437 54.4155 86.547L54.4335 86.522C54.4375 86.544 54.4395 86.5713 54.4395 86.604V87H54.3475ZM54.9794 87.008C54.9288 87.008 54.8844 87.002 54.8464 86.99C54.8091 86.9773 54.7778 86.959 54.7524 86.935C54.7278 86.911 54.7094 86.8817 54.6974 86.847C54.6854 86.8117 54.6794 86.7713 54.6794 86.726C54.6794 86.6693 54.6898 86.62 54.7104 86.578C54.7318 86.5353 54.7611 86.5023 54.7984 86.479C54.8364 86.4557 54.8808 86.444 54.9314 86.444C54.9901 86.444 55.0374 86.456 55.0734 86.48C55.1094 86.504 55.1351 86.5377 55.1504 86.581C55.1664 86.6243 55.1734 86.6747 55.1714 86.732L55.1704 86.76H54.7434V86.684H55.0754V86.676C55.0754 86.626 55.0634 86.5883 55.0394 86.563C55.0154 86.537 54.9794 86.524 54.9314 86.524C54.9034 86.524 54.8774 86.53 54.8534 86.542C54.8294 86.554 54.8101 86.5743 54.7954 86.603C54.7808 86.6317 54.7734 86.6707 54.7734 86.72V86.726C54.7734 86.7773 54.7824 86.8177 54.8004 86.847C54.8184 86.8763 54.8431 86.8973 54.8744 86.91C54.9064 86.922 54.9428 86.928 54.9834 86.928C55.0174 86.928 55.0464 86.9247 55.0704 86.918C55.0944 86.9113 55.1134 86.904 55.1274 86.896H55.1354V86.978C55.1194 86.986 55.0984 86.993 55.0724 86.999C55.0464 87.005 55.0154 87.008 54.9794 87.008ZM55.3201 87V86.412C55.3201 86.3987 55.3198 86.3813 55.3191 86.36C55.3191 86.3387 55.3185 86.3177 55.3171 86.297C55.3165 86.2763 55.3148 86.26 55.3121 86.248L55.3141 86.24H55.4121V87H55.3201ZM55.7904 87.012C55.7124 87.012 55.6537 86.998 55.6144 86.97C55.5757 86.9413 55.5564 86.898 55.5564 86.84C55.5564 86.8013 55.5657 86.7693 55.5844 86.744C55.6037 86.7187 55.6307 86.6997 55.6654 86.687C55.7007 86.6743 55.7424 86.668 55.7904 86.668C55.8277 86.668 55.8587 86.6713 55.8834 86.678C55.9087 86.684 55.9304 86.69 55.9484 86.696V86.768C55.9304 86.762 55.9081 86.7567 55.8814 86.752C55.8547 86.7467 55.8297 86.744 55.8064 86.744C55.7524 86.744 55.7121 86.751 55.6854 86.765C55.6594 86.779 55.6464 86.804 55.6464 86.84C55.6464 86.874 55.6591 86.8987 55.6844 86.914C55.7097 86.9287 55.7464 86.936 55.7944 86.936C55.8211 86.936 55.8467 86.934 55.8714 86.93C55.8961 86.9253 55.9191 86.9193 55.9404 86.912L55.9224 86.939C55.9211 86.9337 55.9197 86.9277 55.9184 86.921C55.9177 86.9143 55.9171 86.9073 55.9164 86.9C55.9157 86.8927 55.9151 86.885 55.9144 86.877C55.9144 86.869 55.9144 86.8607 55.9144 86.852V86.672C55.9144 86.6293 55.9084 86.5977 55.8964 86.577C55.8851 86.5557 55.8677 86.5417 55.8444 86.535C55.8217 86.5277 55.7931 86.524 55.7584 86.524C55.7324 86.524 55.7057 86.5273 55.6784 86.534C55.6517 86.5407 55.6304 86.548 55.6144 86.556H55.6064V86.474C55.6304 86.464 55.6571 86.4567 55.6864 86.452C55.7164 86.4467 55.7444 86.444 55.7704 86.444C55.8037 86.444 55.8344 86.447 55.8624 86.453C55.8911 86.459 55.9161 86.47 55.9374 86.486C55.9594 86.5013 55.9764 86.5237 55.9884 86.553C56.0004 86.5823 56.0064 86.6207 56.0064 86.668V86.8C56.0064 86.8133 56.0064 86.8307 56.0064 86.852C56.0071 86.8733 56.0077 86.8943 56.0084 86.915C56.0097 86.9357 56.0117 86.952 56.0144 86.964L56.0124 86.972C55.9904 86.98 55.9661 86.987 55.9394 86.993C55.9127 86.999 55.8861 87.0037 55.8594 87.007C55.8334 87.0103 55.8104 87.012 55.7904 87.012ZM56.3746 87.008C56.3279 87.008 56.2906 87.0007 56.2626 86.986C56.2346 86.9707 56.2143 86.9497 56.2016 86.923C56.1889 86.8957 56.1826 86.864 56.1826 86.828V86.308H56.2746V86.82C56.2746 86.858 56.2829 86.8857 56.2996 86.903C56.3163 86.9197 56.3426 86.928 56.3786 86.928C56.3926 86.928 56.4063 86.9267 56.4196 86.924C56.4329 86.9207 56.4446 86.9167 56.4546 86.912H56.4626V86.99C56.4526 86.9947 56.4399 86.9987 56.4246 87.002C56.4093 87.006 56.3926 87.008 56.3746 87.008ZM56.0986 86.536V86.456H56.4306V86.536H56.0986ZM56.6249 86.36C56.6082 86.36 56.5939 86.3547 56.5819 86.344C56.5706 86.3327 56.5649 86.318 56.5649 86.3C56.5649 86.282 56.5706 86.2677 56.5819 86.257C56.5939 86.2457 56.6082 86.24 56.6249 86.24C56.6422 86.24 56.6566 86.2457 56.6679 86.257C56.6792 86.2677 56.6849 86.282 56.6849 86.3C56.6849 86.318 56.6792 86.3327 56.6679 86.344C56.6566 86.3547 56.6422 86.36 56.6249 86.36ZM56.5789 87V86.628C56.5789 86.6147 56.5786 86.5973 56.5779 86.576C56.5779 86.5547 56.5772 86.5337 56.5759 86.513C56.5752 86.4923 56.5736 86.476 56.5709 86.464L56.5729 86.456H56.6709V87H56.5789ZM56.9711 87L56.7791 86.468V86.456H56.8751L57.0471 86.954H57.0221L57.1991 86.456H57.2911V86.468L57.0911 87H56.9711ZM57.6474 87.008C57.5967 87.008 57.5524 87.002 57.5144 86.99C57.4771 86.9773 57.4457 86.959 57.4204 86.935C57.3957 86.911 57.3774 86.8817 57.3654 86.847C57.3534 86.8117 57.3474 86.7713 57.3474 86.726C57.3474 86.6693 57.3577 86.62 57.3784 86.578C57.3997 86.5353 57.4291 86.5023 57.4664 86.479C57.5044 86.4557 57.5487 86.444 57.5994 86.444C57.6581 86.444 57.7054 86.456 57.7414 86.48C57.7774 86.504 57.8031 86.5377 57.8184 86.581C57.8344 86.6243 57.8414 86.6747 57.8394 86.732L57.8384 86.76H57.4114V86.684H57.7434V86.676C57.7434 86.626 57.7314 86.5883 57.7074 86.563C57.6834 86.537 57.6474 86.524 57.5994 86.524C57.5714 86.524 57.5454 86.53 57.5214 86.542C57.4974 86.554 57.4781 86.5743 57.4634 86.603C57.4487 86.6317 57.4414 86.6707 57.4414 86.72V86.726C57.4414 86.7773 57.4504 86.8177 57.4684 86.847C57.4864 86.8763 57.5111 86.8973 57.5424 86.91C57.5744 86.922 57.6107 86.928 57.6514 86.928C57.6854 86.928 57.7144 86.9247 57.7384 86.918C57.7624 86.9113 57.7814 86.904 57.7954 86.896H57.8034V86.978C57.7874 86.986 57.7664 86.993 57.7404 86.999C57.7144 87.005 57.6834 87.008 57.6474 87.008Z" fill="white"/>
<path d="M95.4779 134.012C95.4692 134.008 95.4599 134.001 95.4499 133.991C95.4405 133.98 95.4359 133.966 95.4359 133.948C95.4359 133.926 95.4419 133.909 95.4539 133.898C95.4665 133.886 95.4819 133.88 95.4999 133.88C95.5179 133.88 95.5329 133.885 95.5449 133.896C95.5575 133.907 95.5639 133.924 95.5639 133.948C95.5639 133.964 95.5615 133.978 95.5569 133.991C95.5522 134.004 95.5479 134.015 95.5439 134.024L95.4839 134.156H95.4079V134.148L95.4779 134.012Z" fill="white"/>
<path d="M94 120.977L30.5 64" stroke="white" stroke-opacity="0.5"/>
<path d="M96 143.5H93" stroke="white"/>
<rect x="0.5" y="55.5" width="19" height="2" stroke="white"/>
<path d="M4.70732 56V55.832H5.02732C5.12599 55.832 5.20732 55.8133 5.27132 55.776C5.33665 55.7373 5.38799 55.6867 5.42532 55.624C5.46399 55.5613 5.49132 55.4933 5.50732 55.42C5.52332 55.3453 5.53132 55.272 5.53132 55.2C5.53132 55.044 5.49332 54.9267 5.41732 54.848C5.34132 54.768 5.22732 54.728 5.07532 54.728H4.70732V54.56H5.07532C5.28732 54.56 5.44932 54.614 5.56132 54.722C5.67465 54.8287 5.73132 54.988 5.73132 55.2C5.73132 55.3 5.71865 55.398 5.69332 55.494C5.66932 55.5887 5.62932 55.674 5.57332 55.75C5.51865 55.826 5.44665 55.8867 5.35732 55.932C5.26799 55.9773 5.15799 56 5.02732 56H4.70732ZM4.59532 56V54.56H4.78732V56H4.59532ZM6.39915 56.024C6.24315 56.024 6.12582 55.996 6.04715 55.94C5.96982 55.8827 5.93115 55.796 5.93115 55.68C5.93115 55.6027 5.94982 55.5387 5.98715 55.488C6.02582 55.4373 6.07982 55.3993 6.14915 55.374C6.21982 55.3487 6.30315 55.336 6.39915 55.336C6.47382 55.336 6.53582 55.3427 6.58515 55.356C6.63582 55.368 6.67915 55.38 6.71515 55.392V55.536C6.67915 55.524 6.63448 55.5133 6.58115 55.504C6.52782 55.4933 6.47782 55.488 6.43115 55.488C6.32315 55.488 6.24248 55.502 6.18915 55.53C6.13715 55.558 6.11115 55.608 6.11115 55.68C6.11115 55.748 6.13648 55.7973 6.18715 55.828C6.23782 55.8573 6.31115 55.872 6.40715 55.872C6.46048 55.872 6.51182 55.868 6.56115 55.86C6.61048 55.8507 6.65648 55.8387 6.69915 55.824L6.66315 55.878C6.66048 55.8673 6.65782 55.8553 6.65515 55.842C6.65382 55.8287 6.65248 55.8147 6.65115 55.8C6.64982 55.7853 6.64848 55.77 6.64715 55.754C6.64715 55.738 6.64715 55.7213 6.64715 55.704V55.344C6.64715 55.2587 6.63515 55.1953 6.61115 55.154C6.58848 55.1113 6.55382 55.0833 6.50715 55.07C6.46182 55.0553 6.40448 55.048 6.33515 55.048C6.28315 55.048 6.22982 55.0547 6.17515 55.068C6.12182 55.0813 6.07915 55.096 6.04715 55.112H6.03115V54.948C6.07915 54.928 6.13248 54.9133 6.19115 54.904C6.25115 54.8933 6.30715 54.888 6.35915 54.888C6.42582 54.888 6.48715 54.894 6.54315 54.906C6.60048 54.918 6.65048 54.94 6.69315 54.972C6.73715 55.0027 6.77115 55.0473 6.79515 55.106C6.81915 55.1647 6.83115 55.2413 6.83115 55.336V55.6C6.83115 55.6267 6.83115 55.6613 6.83115 55.704C6.83248 55.7467 6.83382 55.7887 6.83515 55.83C6.83782 55.8713 6.84182 55.904 6.84715 55.928L6.84315 55.944C6.79915 55.96 6.75048 55.974 6.69715 55.986C6.64382 55.998 6.59048 56.0073 6.53715 56.014C6.48515 56.0207 6.43915 56.024 6.39915 56.024ZM7.19884 56V55.312C7.19884 55.2853 7.19817 55.2507 7.19684 55.208C7.19684 55.1653 7.1955 55.1233 7.19284 55.082C7.1915 55.0407 7.18817 55.008 7.18284 54.984L7.18684 54.968C7.2215 54.9547 7.26484 54.942 7.31684 54.93C7.36884 54.918 7.42217 54.908 7.47684 54.9C7.5315 54.892 7.58017 54.888 7.62284 54.888C7.6815 54.888 7.7375 54.8953 7.79084 54.91C7.84417 54.9233 7.8915 54.948 7.93284 54.984C7.9755 55.0187 8.00884 55.0667 8.03284 55.128C8.05817 55.188 8.07084 55.2653 8.07084 55.36V56H7.88684V55.376C7.88684 55.288 7.87417 55.2207 7.84884 55.174C7.82484 55.126 7.79084 55.0933 7.74684 55.076C7.70417 55.0573 7.65484 55.048 7.59884 55.048C7.55617 55.048 7.51017 55.0527 7.46084 55.062C7.41284 55.0713 7.37084 55.0827 7.33484 55.096L7.36684 55.04C7.37217 55.06 7.37617 55.0853 7.37884 55.116C7.3815 55.1453 7.38284 55.176 7.38284 55.208V56H7.19884ZM8.55084 56V55.376C8.55084 55.288 8.5395 55.2207 8.51684 55.174C8.49417 55.126 8.46017 55.0933 8.41484 55.076C8.3695 55.0573 8.3135 55.048 8.24684 55.048C8.20817 55.048 8.16817 55.0527 8.12684 55.062C8.08684 55.0713 8.04417 55.0853 7.99884 55.104L7.88684 54.976C7.9535 54.9493 8.0195 54.928 8.08484 54.912C8.1515 54.896 8.2135 54.888 8.27084 54.888C8.3375 54.888 8.39884 54.8953 8.45484 54.91C8.51084 54.9233 8.5595 54.948 8.60084 54.984C8.6435 55.0187 8.67617 55.0667 8.69884 55.128C8.72284 55.188 8.73484 55.2653 8.73484 55.36V56H8.55084ZM9.11095 56.464V55.304C9.11095 55.28 9.11028 55.2473 9.10895 55.206C9.10895 55.1647 9.10761 55.1233 9.10495 55.082C9.10361 55.0407 9.10028 55.008 9.09495 54.984L9.09895 54.968C9.15761 54.944 9.22228 54.9247 9.29295 54.91C9.36495 54.8953 9.43495 54.888 9.50295 54.888C9.58695 54.888 9.66228 54.9007 9.72895 54.926C9.79695 54.9513 9.85495 54.9887 9.90295 55.038C9.95095 55.086 9.98761 55.1447 10.0129 55.214C10.0383 55.2833 10.0509 55.3627 10.0509 55.452C10.0509 55.5413 10.0376 55.6213 10.0109 55.692C9.98428 55.7627 9.94628 55.8227 9.89695 55.872C9.84761 55.9213 9.78761 55.9593 9.71695 55.986C9.64628 56.0113 9.56695 56.024 9.47895 56.024C9.43761 56.024 9.39628 56.0193 9.35495 56.01C9.31495 56.002 9.28295 55.9953 9.25895 55.99L9.27095 55.826C9.28695 55.8353 9.31095 55.844 9.34295 55.852C9.37628 55.86 9.42161 55.864 9.47895 55.864C9.60695 55.864 9.70295 55.8287 9.76695 55.758C9.83095 55.6873 9.86295 55.5853 9.86295 55.452C9.86295 55.3173 9.83028 55.2167 9.76495 55.15C9.69961 55.082 9.60695 55.048 9.48695 55.048C9.44161 55.048 9.39761 55.0533 9.35495 55.064C9.31361 55.0733 9.27961 55.0853 9.25295 55.1L9.28295 55.044C9.28695 55.064 9.28961 55.0887 9.29095 55.118C9.29361 55.1473 9.29495 55.1773 9.29495 55.208V56.464H9.11095ZM10.8671 56.016C10.7658 56.016 10.6771 56.004 10.6011 55.98C10.5264 55.9547 10.4638 55.918 10.4131 55.87C10.3638 55.822 10.3271 55.7633 10.3031 55.694C10.2791 55.6233 10.2671 55.5427 10.2671 55.452C10.2671 55.3387 10.2878 55.24 10.3291 55.156C10.3718 55.0707 10.4304 55.0047 10.5051 54.958C10.5811 54.9113 10.6698 54.888 10.7711 54.888C10.8884 54.888 10.9831 54.912 11.0551 54.96C11.1271 55.008 11.1784 55.0753 11.2091 55.162C11.2411 55.2487 11.2551 55.3493 11.2511 55.464L11.2491 55.52H10.3951V55.368H11.0591V55.352C11.0591 55.252 11.0351 55.1767 10.9871 55.126C10.9391 55.074 10.8671 55.048 10.7711 55.048C10.7151 55.048 10.6631 55.06 10.6151 55.084C10.5671 55.108 10.5284 55.1487 10.4991 55.206C10.4698 55.2633 10.4551 55.3413 10.4551 55.44V55.452C10.4551 55.5547 10.4731 55.6353 10.5091 55.694C10.5451 55.7527 10.5944 55.7947 10.6571 55.82C10.7211 55.844 10.7938 55.856 10.8751 55.856C10.9431 55.856 11.0011 55.8493 11.0491 55.836C11.0971 55.8227 11.1351 55.808 11.1631 55.792H11.1791V55.956C11.1471 55.972 11.1051 55.986 11.0531 55.998C11.0011 56.01 10.9391 56.016 10.8671 56.016ZM11.5484 56V55.312C11.5484 55.2853 11.5478 55.2507 11.5464 55.208C11.5464 55.1653 11.5451 55.1233 11.5424 55.082C11.5411 55.0407 11.5378 55.008 11.5324 54.984L11.5364 54.968C11.5711 54.9547 11.6151 54.942 11.6684 54.93C11.7218 54.918 11.7758 54.908 11.8304 54.9C11.8851 54.892 11.9324 54.888 11.9724 54.888C12.0391 54.888 12.1011 54.8953 12.1584 54.91C12.2158 54.9233 12.2664 54.948 12.3104 54.984C12.3558 55.0187 12.3904 55.0667 12.4144 55.128C12.4398 55.188 12.4524 55.2653 12.4524 55.36V56H12.2684V55.376C12.2684 55.288 12.2558 55.2207 12.2304 55.174C12.2051 55.126 12.1684 55.0933 12.1204 55.076C12.0724 55.0573 12.0151 55.048 11.9484 55.048C11.9058 55.048 11.8598 55.0527 11.8104 55.062C11.7624 55.0713 11.7204 55.0827 11.6844 55.096L11.7164 55.04C11.7218 55.06 11.7258 55.0853 11.7284 55.116C11.7311 55.1453 11.7324 55.176 11.7324 55.208V56H11.5484ZM13.3397 56.016C13.2384 56.016 13.1497 56.004 13.0737 55.98C12.9991 55.9547 12.9364 55.918 12.8857 55.87C12.8364 55.822 12.7997 55.7633 12.7757 55.694C12.7517 55.6233 12.7397 55.5427 12.7397 55.452C12.7397 55.3387 12.7604 55.24 12.8017 55.156C12.8444 55.0707 12.9031 55.0047 12.9777 54.958C13.0537 54.9113 13.1424 54.888 13.2437 54.888C13.3611 54.888 13.4557 54.912 13.5277 54.96C13.5997 55.008 13.6511 55.0753 13.6817 55.162C13.7137 55.2487 13.7277 55.3493 13.7237 55.464L13.7217 55.52H12.8677V55.368H13.5317V55.352C13.5317 55.252 13.5077 55.1767 13.4597 55.126C13.4117 55.074 13.3397 55.048 13.2437 55.048C13.1877 55.048 13.1357 55.06 13.0877 55.084C13.0397 55.108 13.0011 55.1487 12.9717 55.206C12.9424 55.2633 12.9277 55.3413 12.9277 55.44V55.452C12.9277 55.5547 12.9457 55.6353 12.9817 55.694C13.0177 55.7527 13.0671 55.7947 13.1297 55.82C13.1937 55.844 13.2664 55.856 13.3477 55.856C13.4157 55.856 13.4737 55.8493 13.5217 55.836C13.5697 55.8227 13.6077 55.808 13.6357 55.792H13.6517V55.956C13.6197 55.972 13.5777 55.986 13.5257 55.998C13.4737 56.01 13.4117 56.016 13.3397 56.016ZM14.0211 56V55.312C14.0211 55.2853 14.0204 55.2507 14.0191 55.208C14.0191 55.1653 14.0178 55.1233 14.0151 55.082C14.0138 55.0407 14.0104 55.008 14.0051 54.984L14.0091 54.968C14.0438 54.9547 14.0864 54.9433 14.1371 54.934C14.1891 54.9247 14.2404 54.9173 14.2911 54.912C14.3431 54.9067 14.3864 54.904 14.4211 54.904C14.4531 54.904 14.4791 54.9047 14.4991 54.906C14.5191 54.9073 14.5358 54.9093 14.5491 54.912V55.072H14.5331C14.5158 55.0693 14.4951 55.0673 14.4711 55.066C14.4471 55.0647 14.4251 55.064 14.4051 55.064C14.3638 55.064 14.3204 55.0673 14.2751 55.074C14.2298 55.0807 14.1904 55.0873 14.1571 55.094L14.1931 55.044C14.2011 55.088 14.2051 55.1427 14.2051 55.208V56H14.0211ZM14.7007 55.784H14.7167C14.7647 55.8053 14.8187 55.8227 14.8787 55.836C14.94 55.8493 15.0007 55.856 15.0607 55.856C15.0793 55.856 15.104 55.8553 15.1347 55.854C15.1667 55.8513 15.1987 55.8453 15.2307 55.836C15.264 55.8267 15.292 55.8107 15.3147 55.788C15.3373 55.764 15.3487 55.7307 15.3487 55.688C15.3487 55.64 15.3293 55.606 15.2907 55.586C15.252 55.566 15.1987 55.5507 15.1307 55.54L15.0347 55.524C14.9213 55.5053 14.8373 55.4733 14.7827 55.428C14.728 55.3813 14.7007 55.316 14.7007 55.232C14.7007 55.1733 14.716 55.1187 14.7467 55.068C14.7787 55.016 14.8293 54.9747 14.8987 54.944C14.9693 54.912 15.0633 54.896 15.1807 54.896C15.2327 54.896 15.2827 54.9007 15.3307 54.91C15.38 54.918 15.4207 54.928 15.4527 54.94V55.104H15.4367C15.3927 55.088 15.3507 55.076 15.3107 55.068C15.2707 55.06 15.2247 55.056 15.1727 55.056C15.0807 55.056 15.008 55.0693 14.9547 55.096C14.9027 55.1213 14.8767 55.1647 14.8767 55.226C14.8767 55.2727 14.8953 55.306 14.9327 55.326C14.9713 55.346 15.0247 55.3613 15.0927 55.372L15.1887 55.388C15.25 55.3973 15.306 55.414 15.3567 55.438C15.4073 55.462 15.448 55.4947 15.4787 55.536C15.5093 55.576 15.5247 55.6267 15.5247 55.688C15.5247 55.796 15.486 55.878 15.4087 55.934C15.3313 55.9887 15.2127 56.016 15.0527 56.016C14.9847 56.016 14.9207 56.0107 14.8607 56C14.802 55.9893 14.7487 55.976 14.7007 55.96V55.784Z" fill="white"/>
<rect x="1.5918" y="55.5" width="13.9072" height="2" stroke="white"/>
<path d="M4.7297 57.6001L4.8897 56.6401C4.90303 56.5601 4.92237 56.4894 4.9477 56.4281C4.97437 56.3668 5.0097 56.3148 5.0537 56.2721C5.0977 56.2294 5.15437 56.1974 5.2237 56.1761C5.29303 56.1548 5.3777 56.1441 5.4777 56.1441C5.5257 56.1441 5.5737 56.1468 5.6217 56.1521C5.67103 56.1561 5.7217 56.1641 5.7737 56.1761L5.7777 56.2001C5.7737 56.2268 5.77037 56.2601 5.7677 56.3001C5.76637 56.3401 5.7657 56.3801 5.7657 56.4201C5.7657 56.4601 5.7657 56.4934 5.7657 56.5201V57.6001H5.5737V56.4161C5.5737 56.3894 5.5737 56.3648 5.5737 56.3421C5.57503 56.3181 5.5777 56.2954 5.5817 56.2741L5.6137 56.3321C5.59637 56.3241 5.57503 56.3188 5.5497 56.3161C5.5257 56.3134 5.49903 56.3121 5.4697 56.3121C5.3817 56.3121 5.3117 56.3241 5.2597 56.3481C5.20903 56.3721 5.17037 56.4081 5.1437 56.4561C5.11837 56.5041 5.09903 56.5654 5.0857 56.6401L4.9257 57.6001H4.7297ZM4.9297 57.1601V56.9921H5.6537V57.1601H4.9297ZM6.62192 57.6241C6.55258 57.6241 6.48725 57.6168 6.42592 57.6021C6.36592 57.5888 6.31325 57.5648 6.26792 57.5301C6.22392 57.4941 6.18925 57.4454 6.16392 57.3841C6.13858 57.3228 6.12592 57.2454 6.12592 57.1521V56.8561C6.12592 56.8294 6.12525 56.7948 6.12392 56.7521C6.12392 56.7094 6.12258 56.6674 6.11992 56.6261C6.11858 56.5848 6.11525 56.5521 6.10992 56.5281L6.11392 56.5121H6.30992V57.1361C6.30992 57.2241 6.32258 57.2921 6.34792 57.3401C6.37458 57.3868 6.41258 57.4194 6.46192 57.4381C6.51258 57.4554 6.57325 57.4641 6.64392 57.4641C6.68658 57.4641 6.72992 57.4608 6.77392 57.4541C6.81925 57.4461 6.85858 57.4374 6.89192 57.4281L6.85792 57.4761C6.85258 57.4574 6.84925 57.4341 6.84792 57.4061C6.84658 57.3781 6.84592 57.3494 6.84592 57.3201V56.8561C6.84592 56.8294 6.84525 56.7948 6.84392 56.7521C6.84392 56.7094 6.84258 56.6674 6.83992 56.6261C6.83858 56.5848 6.83525 56.5521 6.82992 56.5281L6.83392 56.5121H7.02992V57.2081C7.02992 57.2348 7.02992 57.2694 7.02992 57.3121C7.03125 57.3548 7.03258 57.3968 7.03392 57.4381C7.03658 57.4794 7.04058 57.5121 7.04592 57.5361L7.04192 57.5521C7.00725 57.5654 6.96325 57.5774 6.90992 57.5881C6.85792 57.5988 6.80525 57.6074 6.75192 57.6141C6.69992 57.6208 6.65658 57.6241 6.62192 57.6241ZM7.81359 57.6161C7.72026 57.6161 7.64559 57.6014 7.58959 57.5721C7.53359 57.5414 7.49292 57.4994 7.46759 57.4461C7.44226 57.3914 7.42959 57.3281 7.42959 57.2561V56.2161H7.61359V57.2401C7.61359 57.3161 7.63026 57.3714 7.66359 57.4061C7.69692 57.4394 7.74959 57.4561 7.82159 57.4561C7.84959 57.4561 7.87692 57.4534 7.90359 57.4481C7.93026 57.4414 7.95359 57.4334 7.97359 57.4241H7.98959V57.5801C7.96959 57.5894 7.94426 57.5974 7.91359 57.6041C7.88292 57.6121 7.84959 57.6161 7.81359 57.6161ZM7.26159 56.6721V56.5121H7.92559V56.6721H7.26159ZM8.13418 57.0521C8.13418 56.9334 8.15485 56.8321 8.19618 56.7481C8.23885 56.6641 8.29752 56.6001 8.37218 56.5561C8.44818 56.5108 8.53552 56.4881 8.63418 56.4881C8.73285 56.4881 8.81952 56.5108 8.89418 56.5561C8.97018 56.6001 9.02885 56.6641 9.07018 56.7481C9.11285 56.8321 9.13418 56.9334 9.13418 57.0521C9.13418 57.1708 9.11285 57.2721 9.07018 57.3561C9.02885 57.4401 8.97018 57.5048 8.89418 57.5501C8.81952 57.5941 8.73285 57.6161 8.63418 57.6161C8.53285 57.6161 8.44485 57.5941 8.37018 57.5501C8.29552 57.5048 8.23752 57.4401 8.19618 57.3561C8.15485 57.2721 8.13418 57.1708 8.13418 57.0521ZM8.32218 57.0521C8.32218 57.1854 8.34885 57.2861 8.40218 57.3541C8.45685 57.4221 8.53418 57.4561 8.63418 57.4561C8.73418 57.4561 8.81085 57.4221 8.86418 57.3541C8.91885 57.2861 8.94618 57.1854 8.94618 57.0521C8.94618 56.9174 8.91885 56.8168 8.86418 56.7501C8.81085 56.6821 8.73418 56.6481 8.63418 56.6481C8.53418 56.6481 8.45685 56.6821 8.40218 56.7501C8.34885 56.8168 8.32218 56.9174 8.32218 57.0521ZM9.94093 57.6001V56.9121C9.94093 56.8854 9.94027 56.8508 9.93893 56.8081C9.93893 56.7654 9.9376 56.7234 9.93493 56.6821C9.9336 56.6408 9.93027 56.6081 9.92493 56.5841L9.92893 56.5681C9.9636 56.5548 10.0063 56.5434 10.0569 56.5341C10.1089 56.5248 10.1603 56.5174 10.2109 56.5121C10.2629 56.5068 10.3063 56.5041 10.3409 56.5041C10.3729 56.5041 10.3989 56.5048 10.4189 56.5061C10.4389 56.5074 10.4556 56.5094 10.4689 56.5121V56.6721H10.4529C10.4356 56.6694 10.4149 56.6674 10.3909 56.6661C10.3669 56.6648 10.3449 56.6641 10.3249 56.6641C10.2836 56.6641 10.2403 56.6674 10.1949 56.6741C10.1496 56.6808 10.1103 56.6874 10.0769 56.6941L10.1129 56.6441C10.1209 56.6881 10.1249 56.7428 10.1249 56.8081V57.6001H9.94093ZM11.2049 57.6161C11.1036 57.6161 11.0149 57.6041 10.9389 57.5801C10.8642 57.5548 10.8016 57.5181 10.7509 57.4701C10.7016 57.4221 10.6649 57.3634 10.6409 57.2941C10.6169 57.2234 10.6049 57.1428 10.6049 57.0521C10.6049 56.9388 10.6256 56.8401 10.6669 56.7561C10.7096 56.6708 10.7682 56.6048 10.8429 56.5581C10.9189 56.5114 11.0076 56.4881 11.1089 56.4881C11.2262 56.4881 11.3209 56.5121 11.3929 56.5601C11.4649 56.6081 11.5162 56.6754 11.5469 56.7621C11.5789 56.8488 11.5929 56.9494 11.5889 57.0641L11.5869 57.1201H10.7329V56.9681H11.3969V56.9521C11.3969 56.8521 11.3729 56.7768 11.3249 56.7261C11.2769 56.6741 11.2049 56.6481 11.1089 56.6481C11.0529 56.6481 11.0009 56.6601 10.9529 56.6841C10.9049 56.7081 10.8662 56.7488 10.8369 56.8061C10.8076 56.8634 10.7929 56.9414 10.7929 57.0401V57.0521C10.7929 57.1548 10.8109 57.2354 10.8469 57.2941C10.8829 57.3528 10.9322 57.3948 10.9949 57.4201C11.0589 57.4441 11.1316 57.4561 11.2129 57.4561C11.2809 57.4561 11.3389 57.4494 11.3869 57.4361C11.4349 57.4228 11.4729 57.4081 11.5009 57.3921H11.5169V57.5561C11.4849 57.5721 11.4429 57.5861 11.3909 57.5981C11.3389 57.6101 11.2769 57.6161 11.2049 57.6161ZM11.8942 57.6001V56.5121C11.8942 56.4161 11.9082 56.3361 11.9362 56.2721C11.9656 56.2081 12.0089 56.1601 12.0662 56.1281C12.1249 56.0961 12.1982 56.0801 12.2862 56.0801C12.3182 56.0801 12.3462 56.0821 12.3702 56.0861C12.3956 56.0901 12.4182 56.0961 12.4382 56.1041V56.2641H12.4222C12.4022 56.2561 12.3822 56.2501 12.3622 56.2461C12.3436 56.2421 12.3182 56.2401 12.2862 56.2401C12.2049 56.2401 12.1496 56.2621 12.1202 56.3061C12.0922 56.3488 12.0782 56.4174 12.0782 56.5121V57.6001H11.8942ZM11.7262 56.6721V56.5121H12.3822V56.6721H11.7262Z" fill="white"/>
<path d="M10 55.9999L19 55.9999L20.5 56L22 56" stroke="white"/>
</svg>
