<svg width="64" height="45" viewBox="0 0 64 45" fill="none" xmlns="http://www.w3.org/2000/svg">
<path fill-rule="evenodd" clip-rule="evenodd" d="M63 44.5H1V19H19.5V1H44.5L44.5283 19H63V44.5ZM6.5 24H21.5V39H6.5V24ZM39.5 24H24.5V39H39.5V24ZM42.5 24H57.5V39H42.5V24ZM39.5 6H24.5V21H39.5V6Z" fill="white"/>
<path d="M1 44.5H0.5V45H1V44.5ZM63 44.5V45H63.5V44.5H63ZM1 19V18.5H0.5V19H1ZM19.5 19V19.5H20V19H19.5ZM19.5 1V0.5H19V1H19.5ZM44.5 1L45 0.999213L44.9992 0.5H44.5V1ZM44.5283 19L44.0283 19.0008L44.0291 19.5H44.5283V19ZM63 19H63.5V18.5H63V19ZM21.5 24H22V23.5H21.5V24ZM6.5 24V23.5H6V24H6.5ZM21.5 39V39.5H22V39H21.5ZM6.5 39H6V39.5H6.5V39ZM24.5 24V23.5H24V24H24.5ZM39.5 24H40V23.5H39.5V24ZM24.5 39H24V39.5H24.5V39ZM39.5 39V39.5H40V39H39.5ZM57.5 24H58V23.5H57.5V24ZM42.5 24V23.5H42V24H42.5ZM57.5 39V39.5H58V39H57.5ZM42.5 39H42V39.5H42.5V39ZM24.5 6V5.5H24V6H24.5ZM39.5 6H40V5.5H39.5V6ZM24.5 21H24V21.5H24.5V21ZM39.5 21V21.5H40V21H39.5ZM6.5 24V23.5H6V24H6.5ZM24.5 24V23.5H24V24H24.5ZM42.5 24V23.5H42V24H42.5ZM24.5 6V5.5H24V6H24.5ZM1 45H63V44H1V45ZM0.5 19V44.5H1.5V19H0.5ZM19.5 18.5H1V19.5H19.5V18.5ZM19 1V19H20V1H19ZM44.5 0.5H19.5V1.5H44.5V0.5ZM45.0283 18.9992L45 0.999213L44 1.00079L44.0283 19.0008L45.0283 18.9992ZM63 18.5H44.5283V19.5H63V18.5ZM63.5 44.5V19H62.5V44.5H63.5ZM21.5 23.5H6.5V24.5H21.5V23.5ZM22 39V24H21V39H22ZM6.5 39.5H21.5V38.5H6.5V39.5ZM6 24V39H7V24H6ZM24.5 24.5H39.5V23.5H24.5V24.5ZM25 39V24H24V39H25ZM39.5 38.5H24.5V39.5H39.5V38.5ZM39 24V39H40V24H39ZM57.5 23.5H42.5V24.5H57.5V23.5ZM58 39V24H57V39H58ZM42.5 39.5H57.5V38.5H42.5V39.5ZM42 24V39H43V24H42ZM24.5 6.5H39.5V5.5H24.5V6.5ZM25 21V6H24V21H25ZM39.5 20.5H24.5V21.5H39.5V20.5ZM39 6V21H40V6H39ZM6.5 24.5H21.5V23.5H6.5V24.5ZM7 39V24H6V39H7ZM24.5 24.5H39.5V23.5H24.5V24.5ZM25 39V24H24V39H25ZM42.5 24.5H57.5V23.5H42.5V24.5ZM43 39V24H42V39H43ZM39.5 5.5H24.5V6.5H39.5V5.5ZM24 6V21H25V6H24Z" fill="white"/>
<path d="M11.5 31.5L15.5 28V35L11.5 31.5Z" fill="white"/>
<path d="M52.5 31.5L48.5 35V28L52.5 31.5Z" fill="white"/>
<path d="M32 34L28.5 30H35.5L32 34Z" fill="white"/>
<path d="M32 11L35.5 15H28.5L32 11Z" fill="white"/>
</svg>
