<svg width="185" height="180" viewBox="0 0 185 180" fill="none" xmlns="http://www.w3.org/2000/svg">
<path d="M184 80L184.5 90.5L184.5 95.5L184.5 100.5L184 105.5L183 110.5L182 115L180.5 121L178.5 127L177 131L175.5 135L173.5 139.5L171 144.5L168 149L165 154L161.5 158.5L158.5 162L156 162.5L153 162.5L149.5 159.5L148.5 155.5L150 151.5L155 145L158.5 138.5L162 132L165 125L168 116L170 107L171 98L171 90L170.5 81.5L169.5 73L167.5 64.5L165 56.5L162 49L158 42L154 35.5L149 29L148.5 25.5L149.5 23L151.5 21L154 20L156.5 20L159 21L162.5 25L168.5 33.5L173 42L177 50.5L180 60L182.5 70L184 80Z" fill="white" stroke="white"/>
<path d="M158.597 81.2632L159 89.8842L159 93.9895L159 98.0947L158.597 102.2L157.792 106.305L156.986 110L155.778 114.926L154.167 119.853L152.958 123.137L151.75 126.421L150.139 130.116L148.125 134.221L145.708 137.916L143.292 142.021L140.472 145.716L138.056 148.589L136.042 149L133.625 149L130.806 146.537L130 143.253L131.208 139.968L135.236 134.632L138.056 129.295L140.875 123.958L143.292 118.211L145.708 110.821L147.319 103.432L148.125 96.0421L148.125 89.4737L147.722 82.4947L146.917 75.5158L145.306 68.5368L143.292 61.9684L140.875 55.8105L137.653 50.0632L134.431 44.7263L130.403 39.3895L130 36.5158L130.806 34.4632L132.417 32.8211L134.431 32L136.444 32L138.458 32.8211L141.278 36.1053L146.111 43.0842L149.736 50.0632L152.958 57.0421L155.375 64.8421L157.389 73.0526L158.597 81.2632Z" fill="white" stroke="white"/>
<path d="M133.736 85.4211L134 91.0947L134 93.7965L134 96.4982L133.736 99.2L133.208 101.902L132.681 104.333L131.889 107.575L130.833 110.818L130.042 112.979L129.25 115.14L128.194 117.572L126.875 120.274L125.292 122.705L123.708 125.407L121.861 127.839L120.278 129.73L118.958 130L117.375 130L115.528 128.379L115 126.218L115.792 124.056L118.431 120.544L120.278 117.032L122.125 113.519L123.708 109.737L125.292 104.874L126.347 100.011L126.875 95.1474L126.875 90.8246L126.611 86.2316L126.083 81.6386L125.028 77.0456L123.708 72.7228L122.125 68.6702L120.014 64.8877L117.903 61.3754L115.264 57.8632L115 55.9719L115.528 54.6211L116.583 53.5403L117.903 53L119.222 53L120.542 53.5403L122.389 55.7018L125.556 60.2947L127.931 64.8877L130.042 69.4807L131.625 74.614L132.944 80.0175L133.736 85.4211Z" fill="white" stroke="white" stroke-width="3"/>
<path d="M42.7294 58.5C45.4573 58.5 48.0668 57.3856 49.9531 55.415L85.7762 17.9927C92.0099 11.4807 103 15.893 103 24.9077V155.552C103 164.504 92.1402 168.946 85.8666 162.561L49.9393 125.992C48.0591 124.078 45.4888 123 42.8059 123H5C2.23858 123 0 120.761 0 118V63.5C0 60.7386 2.23858 58.5 5 58.5H42.7294Z" fill="white"/>
</svg>
