<svg width="62" height="62" viewBox="0 0 62 62" fill="none" xmlns="http://www.w3.org/2000/svg">
<path fill-rule="evenodd" clip-rule="evenodd" d="M31 56C44.8071 56 56 44.8071 56 31C56 17.1929 44.8071 6 31 6C17.1929 6 6 17.1929 6 31C6 44.8071 17.1929 56 31 56ZM30.5 43C37.4036 43 43 37.4036 43 30.5C43 23.5964 37.4036 18 30.5 18C23.5964 18 18 23.5964 18 30.5C18 37.4036 23.5964 43 30.5 43Z" fill="white"/>
<path d="M9.9502 43L19.1426 52.1924L13.1322 56.0815L6.06111 49.0104L9.9502 43Z" fill="white"/>
<path d="M43 52.1924L52.1924 43L56.0815 49.0104L49.0104 56.0815L43 52.1924Z" fill="white"/>
<path d="M52.1924 19.1421L43 9.9497L49.0104 6.06061L56.0815 13.1317L52.1924 19.1421Z" fill="white"/>
<path d="M19.1426 9.94971L9.95019 19.1421L6.0611 13.1317L13.1322 6.06062L19.1426 9.94971Z" fill="white"/>
<path d="M55 37V24L62 25.5V35.5L55 37Z" fill="white"/>
<path d="M7 24V37L0 35.5V25.5L7 24Z" fill="white"/>
<path d="M24 55H37L35.5 62H25.5L24 55Z" fill="white"/>
<path d="M37 7H24L25.5 0H35.5L37 7Z" fill="white"/>
</svg>
