<svg width="58" height="83" viewBox="0 0 58 83" fill="none" xmlns="http://www.w3.org/2000/svg">
<path fill-rule="evenodd" clip-rule="evenodd" d="M29 83C45.0163 83 58 70.0163 58 54C58 37.9837 45.0163 25 29 25C17.6578 25 7.83638 31.5114 3.06997 41H9.78887C13.8252 34.9701 20.699 31 28.5 31C40.9264 31 51 41.0736 51 53.5C51 65.9264 40.9264 76 28.5 76C16.0736 76 6 65.9264 6 53.5C6 53.0269 6.0146 52.5573 6.04337 52.0915L5.24888 50.7011L4.19722 50H1.80278L0.775663 50.6847L0.0602437 52.1156C0.0202861 52.7386 0 53.3669 0 54C0 70.0163 12.9837 83 29 83Z" fill="white"/>
<path d="M16.0372 33.9789C16.3426 34.3224 16.7173 34.5972 17.1367 34.7852V34.7852C20.3342 36.2186 19.3115 41 15.8075 41H2.28013C1.5732 41 1.00018 40.4268 1.0004 39.7199V39.7199C1.00045 39.5744 1.02531 39.4299 1.07393 39.2928L5.47231 26.883C6.91774 22.8049 12.9912 24.1113 12.6319 28.4231V28.4231C12.548 29.4301 12.8804 30.4274 13.5517 31.1827L16.0372 33.9789Z" fill="white"/>
</svg>
